<?xml version="1.0" standalone="no"?>
<!DOCTYPE svg PUBLIC "-//W3C//DTD SVG 20010904//EN"
 "http://www.w3.org/TR/2001/REC-SVG-20010904/DTD/svg10.dtd">
<svg version="1.0" xmlns="http://www.w3.org/2000/svg"
 width="500.000000pt" height="500.000000pt" viewBox="0 0 500.000000 500.000000"
 preserveAspectRatio="xMidYMid meet">

<g transform="translate(0.000000,500.000000) scale(0.100000,-0.100000)"
fill="#000000" stroke="none">
<path d="M2320 3779 c-469 -58 -883 -400 -1031 -852 -39 -120 -59 -239 -59
-351 1 -90 1 -91 16 -56 8 19 24 45 35 56 14 15 23 45 30 96 34 278 143 502
335 694 156 155 333 256 546 312 93 24 120 27 283 27 162 0 190 -3 281 -27
268 -69 500 -226 663 -447 71 -97 140 -233 171 -341 12 -41 28 -88 36 -103 8
-16 14 -45 14 -65 l0 -36 30 34 c16 19 29 42 30 51 0 27 -48 187 -81 264 -108
259 -328 493 -587 624 -78 40 -213 85 -315 106 -98 19 -297 27 -397 14z"/>
<path d="M2365 3101 c-92 -22 -190 -112 -246 -227 -39 -79 -51 -170 -25 -180
9 -4 20 -3 24 1 4 4 1 10 -5 12 -24 9 -14 77 21 150 31 65 107 163 126 163 4
0 1 -27 -7 -61 -7 -33 -19 -111 -26 -172 l-13 -112 -49 -33 c-28 -17 -51 -36
-53 -41 -1 -4 15 -8 36 -8 22 0 45 -3 51 -7 7 -5 11 -50 11 -130 0 -92 4 -127
15 -142 17 -23 16 -29 15 124 -1 67 3 122 7 122 5 0 68 -47 142 -105 124 -98
152 -116 150 -97 0 7 -252 206 -282 224 -10 5 -17 21 -17 39 0 23 11 40 52 77
139 125 208 227 208 309 0 69 -61 111 -135 94z m87 -38 c56 -50 -24 -211 -166
-334 l-39 -34 7 65 c4 36 16 116 27 178 19 101 24 114 48 127 36 20 100 19
123 -2z m-242 -443 c0 -5 -7 -10 -16 -10 -8 0 -12 5 -9 10 3 6 10 10 16 10 5
0 9 -4 9 -10z"/>
<path d="M1586 3070 c-66 -58 -136 -199 -172 -345 -15 -60 -23 -75 -61 -109
-99 -88 -127 -208 -38 -168 32 15 55 52 82 131 21 63 23 66 90 103 103 57 101
58 87 -74 -19 -178 -21 -308 -4 -308 6 0 10 28 10 63 0 34 7 125 15 202 8 77
15 148 15 158 0 10 8 17 19 17 16 0 18 -9 18 -80 0 -124 32 -141 79 -43 25 54
26 55 38 32 20 -40 52 -36 102 14 24 24 44 51 44 58 0 8 -20 -8 -45 -34 -62
-68 -80 -62 -79 26 1 77 -14 85 -31 16 -13 -47 -59 -144 -74 -153 -29 -18 -11
225 25 317 4 11 1 17 -9 17 -11 0 -20 -21 -32 -75 -11 -50 -22 -75 -31 -75
-19 0 -18 13 8 168 23 132 21 159 -9 169 -6 2 -27 -10 -47 -27z m54 -19 c0
-15 -9 -73 -19 -127 -11 -54 -22 -116 -26 -137 -5 -29 -12 -40 -33 -47 -15 -6
-53 -24 -84 -41 -32 -17 -58 -28 -58 -26 0 28 60 198 91 257 40 77 97 150 118
150 6 0 11 -13 11 -29z m-270 -492 c-29 -77 -90 -132 -90 -81 0 28 80 132 102
132 4 0 -1 -23 -12 -51z"/>
<path d="M1785 2870 c-8 -13 4 -32 16 -25 12 8 12 35 0 35 -6 0 -13 -4 -16
-10z"/>
<path d="M3106 2750 c-91 -88 -110 -90 -126 -16 l-7 31 -23 -39 c-13 -22 -26
-34 -28 -27 -7 20 33 66 57 65 11 0 21 5 21 13 0 14 -38 18 -56 5 -6 -4 -27
-32 -47 -62 -66 -105 -87 -104 -87 6 0 80 -8 89 -46 53 l-22 -21 -7 21 c-10
33 -31 25 -59 -24 -15 -25 -28 -45 -30 -45 -2 0 0 18 4 40 4 22 4 43 -1 45 -9
6 -29 -27 -29 -48 0 -29 -41 -68 -69 -65 -21 2 -27 9 -31 36 -3 18 -8 34 -13
35 -4 1 -18 -16 -32 -38 -13 -22 -24 -33 -25 -25 0 8 9 30 20 48 18 29 25 33
46 28 19 -5 25 -3 22 6 -3 7 -18 13 -33 13 -37 0 -77 -55 -73 -100 4 -38 23
-38 47 -1 18 27 19 27 26 7 9 -29 49 -37 81 -16 19 12 29 14 37 6 18 -18 24
-14 53 37 35 61 34 60 45 39 12 -21 27 -22 50 -1 17 16 18 13 17 -48 0 -36 2
-70 6 -77 11 -18 51 -13 71 9 11 13 25 18 39 14 16 -4 26 3 40 26 l18 32 12
-24 c6 -12 22 -24 34 -26 26 -4 89 35 97 59 8 23 74 84 82 76 7 -7 -25 -76
-68 -149 -13 -21 -20 -40 -17 -44 4 -3 32 12 64 35 31 23 61 41 66 41 4 0 8
-10 8 -23 0 -15 -23 -45 -66 -87 -100 -99 -140 -180 -88 -180 29 0 101 85 139
164 41 85 92 138 107 112 13 -24 26 -20 47 14 l18 31 17 -26 c18 -27 54 -33
74 -13 9 9 15 8 26 -7 13 -18 16 -17 42 27 34 55 44 59 44 17 0 -41 16 -69 40
-69 21 0 74 63 68 81 -2 7 -14 -4 -27 -24 -39 -63 -71 -40 -71 49 0 35 -16 29
-46 -16 -15 -22 -28 -39 -30 -37 -2 2 1 20 7 41 15 54 4 68 -16 21 -23 -53
-43 -75 -70 -75 -24 0 -35 17 -35 56 0 35 -13 30 -39 -16 -25 -46 -35 -52 -21
-14 22 56 31 66 56 61 16 -3 23 0 21 7 -2 6 -15 12 -30 14 -21 3 -31 -4 -52
-38 -14 -23 -40 -54 -58 -70 l-32 -29 -8 25 c-10 27 -24 30 -52 11 -81 -56
-79 -57 -34 27 39 72 44 106 18 106 -6 0 -44 -31 -83 -70z m75 -239 c-38 -64
-88 -118 -99 -107 -2 3 -2 16 2 30 6 26 125 160 134 152 2 -3 -14 -37 -37 -75z"/>
<path d="M3676 2634 c-27 -24 -28 -28 -31 -132 -7 -226 -97 -487 -225 -652
l-27 -35 29 -24 c17 -13 33 -20 36 -15 72 103 96 142 131 212 53 106 96 234
116 346 15 90 21 326 8 326 -5 0 -21 -12 -37 -26z"/>
<path d="M1236 2408 c30 -223 99 -405 217 -576 l50 -73 26 23 c14 13 28 24 30
25 2 1 -10 19 -26 40 -47 60 -109 171 -143 255 -32 81 -70 218 -70 255 0 35
-11 53 -31 53 -10 0 -28 9 -39 20 l-20 20 6 -42z"/>
<path d="M1616 1783 c-2 -10 -7 -32 -11 -49 -3 -18 -15 -40 -26 -50 -33 -30
-23 -49 11 -20 17 14 49 28 76 32 29 4 42 10 36 16 -6 6 -23 6 -46 0 l-36 -11
6 50 c6 47 0 67 -10 32z"/>
<path d="M3315 1778 c-4 -9 1 -30 9 -47 9 -17 21 -42 26 -56 l10 -25 -61 30
c-33 17 -64 28 -69 25 -13 -8 80 -115 100 -115 8 0 -5 19 -30 45 -24 25 -41
45 -37 45 4 0 30 -12 58 -26 28 -14 54 -23 57 -19 3 3 -7 31 -22 63 l-28 57
40 -39 c22 -21 45 -37 51 -35 6 2 -13 29 -43 58 -43 43 -57 51 -61 39z"/>
<path d="M1812 1543 c-44 -65 -48 -73 -33 -73 12 0 83 110 78 123 -2 6 -22
-16 -45 -50z"/>
<path d="M3060 1574 c0 -14 72 -124 82 -124 8 0 -10 38 -56 113 -11 17 -26 23
-26 11z"/>
<path d="M2010 1454 c-35 -80 -35 -90 -3 -102 15 -5 36 -13 46 -17 9 -4 17 -3
17 3 0 6 -16 16 -35 22 -19 6 -35 14 -35 16 0 2 11 31 24 64 29 70 15 82 -14
14z"/>
<path d="M2814 1467 l-31 -12 22 -64 c12 -36 27 -67 33 -69 9 -3 10 3 2 24
-12 31 -6 40 32 49 23 6 29 3 39 -19 7 -14 16 -26 21 -26 12 0 0 42 -16 55 -6
6 -10 18 -8 28 9 42 -33 57 -94 34z m76 -32 c0 -7 -14 -18 -31 -25 -26 -11
-32 -11 -40 1 -15 24 -10 37 19 47 29 10 52 0 52 -23z"/>
<path d="M2276 1360 c-4 -39 -5 -74 -2 -77 3 -3 23 -6 45 -7 48 -1 69 17 77
65 8 47 -18 79 -72 86 l-41 5 -7 -72z m88 34 c36 -35 6 -104 -45 -104 -32 0
-35 10 -23 83 5 30 11 37 30 37 12 0 30 -7 38 -16z"/>
<path d="M2586 1378 c9 -81 15 -108 24 -108 8 0 6 41 -6 118 -7 48 -23 39 -18
-10z"/>
</g>
</svg>
